<svg xmlns="http://www.w3.org/2000/svg" viewBox="0 0 100 100">
  <defs>
    <linearGradient id="grad" x1="0%" y1="0%" x2="100%" y2="100%">
      <stop offset="0%" style="stop-color:#3F3D88;stop-opacity:1" />
      <stop offset="100%" style="stop-color:#E07A5F;stop-opacity:1" />
    </linearGradient>
  </defs>
  
  <!-- Background circle -->
  <circle cx="50" cy="50" r="48" fill="url(#grad)"/>
  
  <!-- Lotus flower design -->
  <g transform="translate(50, 50)">
    <!-- Center circle -->
    <circle cx="0" cy="0" r="8" fill="#FFD700"/>
    
    <!-- Lotus petals -->
    <ellipse cx="0" cy="-15" rx="8" ry="18" fill="#FFF" opacity="0.9" transform="rotate(0)"/>
    <ellipse cx="0" cy="-15" rx="8" ry="18" fill="#FFF" opacity="0.9" transform="rotate(45)"/>
    <ellipse cx="0" cy="-15" rx="8" ry="18" fill="#FFF" opacity="0.9" transform="rotate(90)"/>
    <ellipse cx="0" cy="-15" rx="8" ry="18" fill="#FFF" opacity="0.9" transform="rotate(135)"/>
    <ellipse cx="0" cy="-15" rx="8" ry="18" fill="#FFF" opacity="0.9" transform="rotate(180)"/>
    <ellipse cx="0" cy="-15" rx="8" ry="18" fill="#FFF" opacity="0.9" transform="rotate(225)"/>
    <ellipse cx="0" cy="-15" rx="8" ry="18" fill="#FFF" opacity="0.9" transform="rotate(270)"/>
    <ellipse cx="0" cy="-15" rx="8" ry="18" fill="#FFF" opacity="0.9" transform="rotate(315)"/>
    
    <!-- Inner petals -->
    <ellipse cx="0" cy="-10" rx="6" ry="12" fill="#FFE4B5" opacity="0.8" transform="rotate(22.5)"/>
    <ellipse cx="0" cy="-10" rx="6" ry="12" fill="#FFE4B5" opacity="0.8" transform="rotate(67.5)"/>
    <ellipse cx="0" cy="-10" rx="6" ry="12" fill="#FFE4B5" opacity="0.8" transform="rotate(112.5)"/>
    <ellipse cx="0" cy="-10" rx="6" ry="12" fill="#FFE4B5" opacity="0.8" transform="rotate(157.5)"/>
    <ellipse cx="0" cy="-10" rx="6" ry="12" fill="#FFE4B5" opacity="0.8" transform="rotate(202.5)"/>
    <ellipse cx="0" cy="-10" rx="6" ry="12" fill="#FFE4B5" opacity="0.8" transform="rotate(247.5)"/>
    <ellipse cx="0" cy="-10" rx="6" ry="12" fill="#FFE4B5" opacity="0.8" transform="rotate(292.5)"/>
    <ellipse cx="0" cy="-10" rx="6" ry="12" fill="#FFE4B5" opacity="0.8" transform="rotate(337.5)"/>
  </g>
</svg>